<svg xmlns="http://www.w3.org/2000/svg" xmlns:xlink="http://www.w3.org/1999/xlink" viewBox="0 0 86 66"><defs><style>.cls-1,.cls-2{stroke:#000;stroke-miterlimit:10;}.cls-1{fill:url(#Dégradé_sans_nom_5);}.cls-3{fill:lime;}</style><linearGradient id="Dégradé_sans_nom_5" x1="0.5" y1="33" x2="85.5" y2="33" gradientUnits="userSpaceOnUse"><stop offset="0.13" stop-color="#474745"/><stop offset="0.43" stop-color="#9d9d9c"/><stop offset="1"/></linearGradient></defs><g id="Calque_2" data-name="Calque 2"><g id="Calque_1-2" data-name="Calque 1"><rect class="cls-1" x="0.5" y="0.5" width="85" height="65"/><rect class="cls-2" x="3.52" y="3.22" width="77.98" height="59.63" rx="12.04"/><path class="cls-3" d="M11.2,34.42h2.2V28.81H11.69v-.65a5.68,5.68,0,0,0,2-.56h.74v6.82h2v.83H11.2Z"/><path class="cls-3" d="M19.86,34.37a1,1,0,1,1,1,1A1,1,0,0,1,19.86,34.37Z"/><path class="cls-3" d="M25.21,31.31c0-2.53,1.48-4.07,3.53-4.07a3,3,0,0,1,2.16,1l-.58.64a2.11,2.11,0,0,0-1.58-.71c-1.5,0-2.48,1.21-2.48,3.17s1,3.21,2.48,3.21a2.26,2.26,0,0,0,1.76-.86l.58.61a3,3,0,0,1-2.44,1.14C26.7,35.39,25.21,33.88,25.21,31.31Z"/><path class="cls-3" d="M32.5,27.38h1.22l1.1,3.36L35.21,32h0l.38-1.27,1.11-3.36H38v7.87H37V31.31c0-.76.12-2.11.16-2.78h0l-.45,1.54-1.12,3.09h-.72l-1.11-3.09-.45-1.54h0c.08.67.17,2,.17,2.78v3.94H32.5Z"/><path class="cls-3" d="M39.88,27.38h1.94c2.36,0,3.64,1.4,3.64,3.9s-1.28,4-3.59,4h-2Zm1.87,7c1.78,0,2.67-1.15,2.67-3.14s-.89-3.07-2.67-3.07h-.87v6.21Z"/><path class="cls-3" d="M48.66,34.37a1,1,0,1,1,1,1A1,1,0,0,1,48.66,34.37Z"/><path class="cls-3" d="M54.05,32.32a2.93,2.93,0,0,1,3-3.05A2.51,2.51,0,0,1,59.68,32a4.87,4.87,0,0,1,0,.6H54.71v-.77h4.34l-.25.28c0-1.38-.69-2.07-1.75-2.07a2.06,2.06,0,0,0-2,2.27,2.12,2.12,0,0,0,2.28,2.28,3.2,3.2,0,0,0,1.77-.55l.36.65a4,4,0,0,1-2.25.69A3,3,0,0,1,54.05,32.32Z"/><path class="cls-3" d="M63.41,32.22l-2-2.8h1.09l.92,1.27c.21.32.45.67.68,1h0c.22-.31.46-.67.66-1l.87-1.26h1l-2.06,2.89,2.23,2.94h-1.1l-1-1.35c-.25-.32-.52-.72-.77-1h0c-.24.35-.48.69-.72,1.07l-1,1.33h-1Z"/><path class="cls-3" d="M68.45,32.32a2.93,2.93,0,0,1,3-3.05A2.51,2.51,0,0,1,74.08,32a4.87,4.87,0,0,1,0,.6H69.11v-.77h4.34l-.25.28c0-1.38-.69-2.07-1.76-2.07a2.06,2.06,0,0,0-2,2.27,2.12,2.12,0,0,0,2.28,2.28,3.2,3.2,0,0,0,1.77-.55l.36.65a4,4,0,0,1-2.25.69A3,3,0,0,1,68.45,32.32Z"/></g></g></svg>