<svg xmlns="http://www.w3.org/2000/svg" xmlns:xlink="http://www.w3.org/1999/xlink" viewBox="0 0 204.7 183.44"><defs><style>.cls-1{fill:url(#Dégradé_sans_nom_4);}.cls-2{fill:#481d4c;}.cls-3{fill:#6b236f;}</style><linearGradient id="Dégradé_sans_nom_4" x1="-1.33" y1="55.06" x2="204.01" y2="173.61" gradientUnits="userSpaceOnUse"><stop offset="0" stop-color="#6b236f"/><stop offset="1" stop-color="#270f29"/></linearGradient></defs><g id="Calque_2" data-name="Calque 2"><g id="Calque_1-2" data-name="Calque 1"><path class="cls-1" d="M0,52.75V168.36a15.08,15.08,0,0,0,15.08,15.08H189.63a15.07,15.07,0,0,0,15.07-15.08V52.75ZM140.06,156H64.88a.31.31,0,0,1-.3-.3V135.29c0-.54,0-.58.57-.59h25.6c.88,0,.88,0,.88-.88v-3.47a.74.74,0,0,0-.74-.75H65.06c-.42,0-.48-.08-.48-.5v-21c0-.55,0-.6.6-.6,2.38,0,4.76,0,7.14,0h18.5c.91,0,.8,0,.82-1.19q0-1.3,0-2.61c0-1.29.11-1.29-.86-1.29H65.44c-1.08,0-.86-.1-.86-.86V81c0-.55,0-.5.5-.5h74.74a.32.32,0,0,1,.32.29V102.1a.29.29,0,0,1-.17.27.64.64,0,0,1-.2,0H121.7c-.55,0-.55,0-.37.52.79,2.27,1.61,4.52,2.42,6.78,1.37,3.79,2.72,7.57,4.08,11.36l2.79,7.81,4.08,11.35,2.79,7.81c.76,2.11,1.49,4.22,2.28,6.32a11,11,0,0,1,.37,1.5C140.1,155.9,140.21,156,140.06,156Z"/><rect class="cls-2" x="94.87" y="-30.31" width="14.96" height="75.58" transform="translate(94.87 109.83) rotate(-90)"/><polygon class="cls-3" points="64.56 0 64.56 52.75 49.6 52.75 49.6 14.96 64.56 0"/><polygon class="cls-3" points="155.1 14.96 155.1 52.75 140.14 52.75 140.14 0 155.1 14.96"/></g></g></svg>