<svg xmlns="http://www.w3.org/2000/svg" xmlns:xlink="http://www.w3.org/1999/xlink" viewBox="0 0 307 235"><defs><style>.cls-1{fill:url(#Dégradé_sans_nom_5);}.cls-2{fill:#fff;}.cls-3{fill:url(#Dégradé_sans_nom_4);}.cls-4{fill:#270f29;}</style><linearGradient id="Dégradé_sans_nom_5" x1="271" y1="66.33" x2="36" y2="66.33" gradientUnits="userSpaceOnUse"><stop offset="0.01" stop-color="#6b236f"/><stop offset="1" stop-color="#270f29"/></linearGradient><linearGradient id="Dégradé_sans_nom_4" x1="52.38" y1="96.71" x2="238.99" y2="204.45" gradientUnits="userSpaceOnUse"><stop offset="0" stop-color="#6b236f"/><stop offset="1" stop-color="#270f29"/></linearGradient></defs><g id="Calque_2" data-name="Calque 2"><g id="Calque_1-2" data-name="Calque 1"><path class="cls-1" d="M271,117.5q0,3.63-.22,7.2c-18.54,3.84-50.56,6.69-88.58,7.65l-.42-1.18c-.94-2.6-1.86-5.21-2.8-7.81q-2-5.67-4.07-11.34c-.81-2.26-1.63-4.52-2.42-6.78-.18-.52-.19-.52.36-.52h18.07a.45.45,0,0,0,.2,0,.28.28,0,0,0,.16-.27V83.07a.3.3,0,0,0-.31-.29h-74.7c-.56,0-.5,0-.5.49v20.61c0,.76-.22.85.86.85H142c1,0,.84,0,.86,1.29q0,1.31,0,2.61c0,1.19.1,1.2-.82,1.2H123.5c-2.38,0-4.75,0-7.13,0-.57,0-.6,0-.6.59v21c0,.42,0,.47.48.5h25.81a.75.75,0,0,1,.75.75h0c-45.82-.42-85.19-3.52-106.59-8q-.22-3.57-.22-7.2,0-4.14.29-8.21c.15-2.22.36-4.43.63-6.61a117.52,117.52,0,0,1,233.16,0c.27,2.18.48,4.39.63,6.61Q271,113.35,271,117.5Z"/><g id="Calque_1-2-2" data-name="Calque 1-2"><path class="cls-2" d="M191.21,158.29H116.07a.29.29,0,0,1-.3-.3v-20.4c0-.54,0-.58.57-.59h25.58c.89,0,.89,0,.89-.88v-3.46c3.52,0,7.09.05,10.69.05,9.85,0,19.45-.12,28.7-.36,1.21,3.39,2.43,6.77,3.65,10.17l2.79,7.8c.76,2.11,1.49,4.22,2.27,6.31a9,9,0,0,1,.37,1.51C191.25,158.19,191.36,158.3,191.21,158.29Z"/></g><path class="cls-3" d="M270.78,124.7q-.19,3.33-.59,6.6a117.5,117.5,0,0,1-233.38,0q-.39-3.27-.59-6.6c23.05,4.78,66.94,8,117.28,8S247.73,129.48,270.78,124.7Z"/><path class="cls-4" d="M270.08,102.68c.27,2.18.48,4.39.63,6.61,11,2.27,17.29,4.91,17.29,7.71s-6.26,5.42-17.22,7.7c-23,4.78-66.94,8-117.28,8s-94.23-3.23-117.28-8C25.26,122.42,19,119.8,19,117s6.28-5.44,17.29-7.71c.15-2.22.36-4.43.63-6.61C13.9,106.53,0,111.53,0,117s13.86,10.45,36.81,14.3C65,136,106.79,139,153.5,139s88.54-3,116.69-7.7C293.14,127.45,307,122.46,307,117S293.1,106.53,270.08,102.68Z"/></g></g></svg>