<svg xmlns="http://www.w3.org/2000/svg" viewBox="0 0 439.38 439.23"><defs><style>.cls-1{fill:#fff;}</style></defs><g id="Calque_2" data-name="Calque 2"><g id="Calque_1-2" data-name="Calque 1"><path class="cls-1" d="M439.34,438.34c-.19.28.42.93-.44.89-.51,0-1,0-1.54,0H1.83a1.75,1.75,0,0,1-1.75-1.85c0-.18,0-.35,0-.52q0-59,0-118.08c0-3.15.2-3.36,3.31-3.44,1.24,0,2.48,0,3.73,0H152.22c5.14,0,5.14,0,5.14-5.07q0-10.11,0-20.21A4.34,4.34,0,0,0,153,285.7H6.83c-1.32,0-2.64,0-3.95,0C.4,285.54.1,285.24.09,282.81c0-4.24,0-8.48,0-12.73V160.78c0-3.22.19-3.47,3.48-3.48,13.83-.05,27.66,0,41.49,0H152.62c5.31,0,4.67-.06,4.75-6.95.06-5.05.08-10.11,0-15.17-.12-7.49.67-7.49-5-7.49q-31,0-62.12,0-42.59,0-85.17,0c-6.29,0-5-.56-5-5q0-59.91,0-119.83C.09-.3-.23,0,3,0H436.7c.27,0,.54,0,.81,0a1.75,1.75,0,0,1,1.83,1.75V125.82a1.68,1.68,0,0,1-.95,1.56,3,3,0,0,1-1.18.22c-1,0-2,0-3.08,0h-102c-3.19,0-3.16,0-2.11,3,4.59,13.18,9.35,26.3,14.07,39.44q11.88,33,23.69,66c5.44,15.12,10.82,30.28,16.25,45.41q11.83,33,23.68,66,8.16,22.69,16.25,45.41c4.39,12.25,8.65,24.54,13.23,36.71A59.17,59.17,0,0,1,439.34,438.34Z"/></g></g></svg>